{
	"asset":{
		"generator":"Khronos glTF Blender I/O v4.2.69",
		"version":"2.0"
	},
	"scene":0,
	"scenes":[
		{
			"name":"Scene",
			"nodes":[
				4
			]
		}
	],
	"nodes":[
		{
			"mesh":0,
			"name":"Object_4"
		},
		{
			"mesh":1,
			"name":"Object_5"
		},
		{
			"children":[
				0,
				1
			],
			"name":"Object_2"
		},
		{
			"children":[
				2
			],
			"name":"03.obj.cleaner.gles",
			"translation":[
				-14.145999908447266,
				-18.46489906311035,
				-8.848899841308594
			]
		},
		{
			"children":[
				3
			],
			"name":"Sketchfab_model",
			"rotation":[
				-0.70710688829422,
				0,
				0,
				0.7071066498756409
			],
			"scale":[
				0.03279111161828041,
				0.03279111534357071,
				0.03279111534357071
			]
		}
	],
	"materials":[
		{
			"alphaMode":"BLEND",
			"doubleSided":true,
			"name":"04___Default",
			"pbrMetallicRoughness":{
				"baseColorTexture":{
					"index":0
				},
				"metallicFactor":0,
				"roughnessFactor":0.6000000238418579
			}
		},
		{
			"doubleSided":true,
			"name":"05___Default",
			"pbrMetallicRoughness":{
				"baseColorTexture":{
					"index":1
				},
				"metallicFactor":0,
				"roughnessFactor":0.6000000238418579
			}
		}
	],
	"meshes":[
		{
			"name":"Object_1",
			"primitives":[
				{
					"attributes":{
						"POSITION":0,
						"NORMAL":1,
						"TEXCOORD_0":2
					},
					"indices":3,
					"material":0
				}
			]
		},
		{
			"name":"Object_2",
			"primitives":[
				{
					"attributes":{
						"POSITION":4,
						"NORMAL":5,
						"TEXCOORD_0":6
					},
					"indices":7,
					"material":1
				}
			]
		}
	],
	"textures":[
		{
			"sampler":0,
			"source":0
		},
		{
			"sampler":0,
			"source":1
		}
	],
	"images":[
		{
			"mimeType":"image/png",
			"name":"witch",
			"uri":"witch.png"
		},
		{
			"mimeType":"image/jpeg",
			"name":"witch",
			"uri":"witch.jpg"
		}
	],
	"accessors":[
		{
			"bufferView":0,
			"componentType":5126,
			"count":1951,
			"max":[
				35.847198486328125,
				31.53459930419922,
				56.81019973754883
			],
			"min":[
				0.06419944763183594,
				0,
				8.591400146484375
			],
			"type":"VEC3"
		},
		{
			"bufferView":1,
			"componentType":5126,
			"count":1951,
			"type":"VEC3"
		},
		{
			"bufferView":2,
			"componentType":5126,
			"count":1951,
			"type":"VEC2"
		},
		{
			"bufferView":3,
			"componentType":5123,
			"count":7878,
			"type":"SCALAR"
		},
		{
			"bufferView":4,
			"componentType":5126,
			"count":1557,
			"max":[
				27.829601287841797,
				33.94770050048828,
				49.50809860229492
			],
			"min":[
				0,
				10.294898986816406,
				8.572199821472168
			],
			"type":"VEC3"
		},
		{
			"bufferView":5,
			"componentType":5126,
			"count":1557,
			"type":"VEC3"
		},
		{
			"bufferView":6,
			"componentType":5126,
			"count":1557,
			"type":"VEC2"
		},
		{
			"bufferView":7,
			"componentType":5123,
			"count":5220,
			"type":"SCALAR"
		}
	],
	"bufferViews":[
		{
			"buffer":0,
			"byteLength":23412,
			"byteOffset":0,
			"target":34962
		},
		{
			"buffer":0,
			"byteLength":23412,
			"byteOffset":23412,
			"target":34962
		},
		{
			"buffer":0,
			"byteLength":15608,
			"byteOffset":46824,
			"target":34962
		},
		{
			"buffer":0,
			"byteLength":15756,
			"byteOffset":62432,
			"target":34963
		},
		{
			"buffer":0,
			"byteLength":18684,
			"byteOffset":78188,
			"target":34962
		},
		{
			"buffer":0,
			"byteLength":18684,
			"byteOffset":96872,
			"target":34962
		},
		{
			"buffer":0,
			"byteLength":12456,
			"byteOffset":115556,
			"target":34962
		},
		{
			"buffer":0,
			"byteLength":10440,
			"byteOffset":128012,
			"target":34963
		}
	],
	"samplers":[
		{
			"magFilter":9729,
			"minFilter":9987
		}
	],
	"buffers":[
		{
			"byteLength":138452,
			"uri":"witch.bin"
		}
	]
}
